<svg width="128" height="28" viewBox="0 0 128 28" fill="none" xmlns="http://www.w3.org/2000/svg">
<path d="M40.5726 25.3079C41.2034 26.2468 42.0418 27.1442 43.0879 28H51.9679C54.0212 26.2667 55.2745 24.4267 55.7279 22.48C55.8738 21.8815 55.9879 21.3349 56.0699 20.8402L49.7864 22.6517C49.6171 22.8878 49.4243 23.1239 49.2079 23.36H47.3294L40.5726 25.3079Z" fill="#FF6551"/>
<path d="M50.8479 16.562L56.3279 15.3357V0H50.8479V16.562Z" fill="#FF6551"/>
<path d="M62.1354 19.0916L63.9425 28H71.4625L73.9613 15.6824L68.4862 17.2607L67.8225 21.36H67.5825L66.9888 17.6924L62.1354 19.0916Z" fill="#FF6551"/>
<path d="M66.2478 13.1159L61.1544 14.2557L58.2625 0H64.0225L66.2225 12.96L66.2478 13.1159Z" fill="#FF6551"/>
<path d="M69.2709 12.4394L74.8735 11.1857L77.1425 0H71.3825L69.2709 12.4394Z" fill="#FF6551"/>
<path d="M78.8026 14.2867L76.1579 28H81.5979L82.4379 23.56H88.7579L89.5979 28H94.9579L91.7669 10.5492L86.736 11.9996L87.1579 14.52L88.0779 19.28H83.0779L83.9579 14.52L84.2603 12.7133L78.8026 14.2867Z" fill="#FF6551"/>
<path d="M84.8912 8.94394L79.6048 10.1269L81.5579 0H89.8379L91.2146 7.52892L86.1764 8.65634L85.5979 5.2H85.5179L84.8912 8.94394Z" fill="#FF6551"/>
<path d="M99.3854 8.35288V28H104.825V6.7846L99.3854 8.35288Z" fill="#FF6551"/>
<path d="M110.865 3.13154L99.3854 5.70049V4.8H93.3454V0H110.865V3.13154Z" fill="#FF6551"/>
<path d="M113.186 4.37442V28H127.706V23.36H118.666V16.12H126.586V11.48H118.666V4.8H127.546V0.234597L113.186 4.37442Z" fill="#FF6551"/>
<path d="M124.859 0L113.186 2.61231V0H124.859Z" fill="#FF6551"/>
<path d="M44.2079 18.0479L38.8308 19.2512C38.7622 18.4026 38.7279 17.4922 38.7279 16.52V0H44.2079V18.0479Z" fill="#FF6551"/>
<path d="M34.9609 20.1172C35.5318 18.126 35.8172 15.9802 35.8172 13.68C35.8172 7.92 33.9239 3.36 30.1372 0H18.5372V23.7924L23.9772 22.575V4.8H27.6572C29.2306 6.72 30.0172 9.77333 30.0172 13.96C30.0172 15.72 29.7906 17.4933 29.3372 19.28C29.1347 20.128 28.8962 20.88 28.6215 21.5358L34.9609 20.1172Z" fill="#FF6551"/>
<path d="M15.44 24.4855V23.36H6.40004V16.12H14.32V11.48H6.40004V4.8H15.28V0H0.920044V27.7347L15.44 24.4855Z" fill="#FF6551"/>
</svg>
